<svg xmlns="http://www.w3.org/2000/svg" viewBox="0 0 128 128" role="img" aria-labelledby="title description">
  <title id="title">One Shortcut for AI Chat</title>
  <desc id="description">One message branching into three AI conversations</desc>
  <defs>
    <linearGradient id="background" x1="18" y1="10" x2="112" y2="120" gradientUnits="userSpaceOnUse">
      <stop stop-color="#312e81"/>
      <stop offset="0.52" stop-color="#1d4ed8"/>
      <stop offset="1" stop-color="#0f766e"/>
    </linearGradient>
    <linearGradient id="signal" x1="68" y1="39" x2="109" y2="89" gradientUnits="userSpaceOnUse">
      <stop stop-color="#c4b5fd"/>
      <stop offset="0.5" stop-color="#7dd3fc"/>
      <stop offset="1" stop-color="#6ee7b7"/>
    </linearGradient>
  </defs>

  <rect x="2" y="2" width="124" height="124" rx="30" fill="url(#background)"/>
  <rect x="2.75" y="2.75" width="122.5" height="122.5" rx="29.25" fill="none" stroke="#fff" stroke-opacity="0.16" stroke-width="1.5"/>

  <path d="M27 31h34c9.94 0 18 8.06 18 18v28c0 9.94-8.06 18-18 18H47L31 108V95h-4c-9.94 0-18-8.06-18-18V49c0-9.94 8.06-18 18-18Z" fill="#f8fafc"/>
  <rect x="28" y="51" width="31" height="6" rx="3" fill="#4f46e5"/>
  <rect x="28" y="65" width="22" height="6" rx="3" fill="#3b82f6"/>

  <path d="M73 49c10 0 12-12 23-12M77 63h20M73 77c10 0 12 12 23 12" fill="none" stroke="url(#signal)" stroke-width="6" stroke-linecap="round"/>
  <circle cx="103" cy="37" r="9" fill="#c4b5fd"/>
  <circle cx="105" cy="63" r="10" fill="#7dd3fc"/>
  <circle cx="103" cy="89" r="9" fill="#6ee7b7"/>
</svg>
